<svg><defs>
    <linearGradient id="linearGradient5376">
      <stop id="stop5384" offset="0" style="stop-color:#e7e7e7;stop-opacity:1;"/>
      <stop style="stop-color:#ffffff;stop-opacity:1;" offset="1" id="stop5380"/>
    </linearGradient>
    <linearGradient id="linearGradient5360">
      <stop style="stop-color:#ffffff;stop-opacity:1;" offset="0" id="stop5362"/>
      <stop style="stop-color:#e7e7e7;stop-opacity:1;" offset="1" id="stop5364"/>
    </linearGradient>
    <linearGradient id="linearGradient5352">
      <stop style="stop-color:#4e111d;stop-opacity:1;" offset="0" id="stop5354"/>
      <stop style="stop-color:#8f1a1e;stop-opacity:1;" offset="1" id="stop5356"/>
    </linearGradient>
    <linearGradient id="linearGradient5328">
      <stop style="stop-color:#7c1315;stop-opacity:1;" offset="0" id="stop5330"/>
      <stop style="stop-color:#e81c24;stop-opacity:1;" offset="1" id="stop5332"/>
    </linearGradient>
    <linearGradient id="linearGradient5320">
      <stop style="stop-color:#e5e5e5;stop-opacity:1;" offset="0" id="stop5322"/>
      <stop style="stop-color:#ffffff;stop-opacity:1;" offset="1" id="stop5324"/>
    </linearGradient>
    <linearGradient id="linearGradient5314" osb:paint="solid">
      <stop style="stop-color:#ededed;stop-opacity:1;" offset="0" id="stop5316"/>
    </linearGradient>
    <inkscape:perspective sodipodi:type="inkscape:persp3d" inkscape:vp_x="14.801303 : 428.87427 : 1" inkscape:vp_y="0 : 1000 : 0" inkscape:vp_z="1106.4104 : 523.60261 : 1" inkscape:persp3d-origin="494 : 329.33333 : 1" id="perspective3830"/>
    <linearGradient id="linearGradient3822">
      <stop style="stop-color:#ffffff;stop-opacity:1;" offset="0" id="stop3824"/>
      <stop style="stop-color:#e7e7e7;stop-opacity:1;" offset="1" id="stop3826"/>
    </linearGradient>
    <radialGradient inkscape:collect="always" xlink:href="#linearGradient3822" id="radialGradient3876" cx="-208.91606" cy="150.28973" fx="-208.91606" fy="150.28973" r="470.01157" gradientTransform="matrix(1,0,0,1.0000499,497.90832,-93.212577)" gradientUnits="userSpaceOnUse"/>
    <linearGradient inkscape:collect="always" xlink:href="#linearGradient5320" id="linearGradient5326" x1="-95.114098" y1="101.63474" x2="421.45139" y2="101.63474" gradientUnits="userSpaceOnUse" gradientTransform="translate(345.17319,407.4471)"/>
    <linearGradient inkscape:collect="always" xlink:href="#linearGradient5328" id="linearGradient5334" x1="1877.5829" y1="914.46088" x2="1734.3185" y2="323.31961" gradientUnits="userSpaceOnUse" gradientTransform="translate(-1257.3988,-126.88546)"/>
    <linearGradient inkscape:collect="always" xlink:href="#linearGradient5352" id="linearGradient5358" x1="-34.42754" y1="872.58557" x2="-34.42754" y2="46.616028" gradientUnits="userSpaceOnUse" gradientTransform="translate(63.4425,2.9061482)"/>
    <linearGradient inkscape:collect="always" xlink:href="#linearGradient5360" id="linearGradient5366" x1="509.27768" y1="753.14532" x2="509.27768" y2="766.40424" gradientUnits="userSpaceOnUse" gradientTransform="translate(0.10508497,0.15360144)"/>
    <linearGradient inkscape:collect="always" xlink:href="#linearGradient5376" id="linearGradient5382" x1="482.48386" y1="781.36462" x2="482.48386" y2="714.42279" gradientUnits="userSpaceOnUse"/>
    <linearGradient inkscape:collect="always" xlink:href="#linearGradient5320-5" id="linearGradient5326-4" x1="-95.114098" y1="101.63474" x2="421.45139" y2="101.63474" gradientUnits="userSpaceOnUse" gradientTransform="translate(345.06811,407.2935)"/>
    <linearGradient id="linearGradient5320-5">
      <stop style="stop-color:#e5e5e5;stop-opacity:1;" offset="0" id="stop5322-8"/>
      <stop style="stop-color:#ffffff;stop-opacity:1;" offset="1" id="stop5324-8"/>
    </linearGradient>
    <linearGradient inkscape:collect="always" xlink:href="#linearGradient5320-1" id="linearGradient5326-2" x1="-95.114098" y1="101.63474" x2="421.45139" y2="101.63474" gradientUnits="userSpaceOnUse" gradientTransform="translate(345.06811,407.2935)"/>
    <linearGradient id="linearGradient5320-1">
      <stop style="stop-color:#e5e5e5;stop-opacity:1;" offset="0" id="stop5322-4"/>
      <stop style="stop-color:#ffffff;stop-opacity:1;" offset="1" id="stop5324-9"/>
    </linearGradient>
  </defs><symbol id="angular" viewBox="0 0 128 128">
  <path fill="#B3B3B3" d="M63.81 1.026l-59.257 20.854 9.363 77.637 49.957 27.457 50.214-27.828 9.36-77.635z"/><path fill="#A6120D" d="M117.536 25.998l-53.864-18.369v112.785l45.141-24.983z"/><path fill="#DD1B16" d="M11.201 26.329l8.026 69.434 44.444 24.651v-112.787z"/><path fill="#F2F2F2" d="M78.499 67.67l-14.827 6.934h-15.628l-7.347 18.374-13.663.254 36.638-81.508 14.827 55.946zm-1.434-3.491l-13.295-26.321-10.906 25.868h10.807l13.394.453z"/><path fill="#B3B3B3" d="M63.671 11.724l.098 26.134 12.375 25.888h-12.446l-.027 10.841 17.209.017 8.042 18.63 13.074.242z"/>
</symbol><symbol id="css" viewBox="0 0 128 128">
<path fill="#1572B6" d="M18.814 114.123l-10.054-112.771h110.48l-10.064 112.754-45.243 12.543-45.119-12.526z"/><path fill="#33A9DC" d="M64.001 117.062l36.559-10.136 8.601-96.354h-45.16v106.49z"/><path fill="#fff" d="M64.001 51.429h18.302l1.264-14.163h-19.566v-13.831h34.681999999999995l-.332 3.711-3.4 38.114h-30.95v-13.831z"/><path fill="#EBEBEB" d="M64.083 87.349l-.061.018-15.403-4.159-.985-11.031h-13.882l1.937 21.717 28.331 7.863.063-.018v-14.39z"/><path fill="#fff" d="M81.127 64.675l-1.666 18.522-15.426 4.164v14.39l28.354-7.858.208-2.337 2.406-26.881h-13.876z"/><path fill="#EBEBEB" d="M64.048 23.435v13.831000000000001h-33.407999999999994l-.277-3.108-.63-7.012-.331-3.711h34.646zM64.001 51.431v13.831000000000001h-15.209l-.277-3.108-.631-7.012-.33-3.711h16.447z"/>
</symbol><symbol id="database" viewBox="0 0 24 24"><path d="M12,3C7.58,3 4,4.79 4,7C4,9.21 7.58,11 12,11C16.42,11 20,9.21 20,7C20,4.79 16.42,3 12,3M4,9V12C4,14.21 7.58,16 12,16C16.42,16 20,14.21 20,12V9C20,11.21 16.42,13 12,13C7.58,13 4,11.21 4,9M4,14V17C4,19.21 7.58,21 12,21C16.42,21 20,19.21 20,17V14C20,16.21 16.42,18 12,18C7.58,18 4,16.21 4,14Z"/></symbol><symbol id="flash">
  <metadata id="metadata8">
    <rdf:RDF>
      <cc:Work rdf:about="">
        <dc:format>image/svg+xml</dc:format>
        <dc:type rdf:resource="http://purl.org/dc/dcmitype/StillImage"/>
        <dc:title/>
      </cc:Work>
    </rdf:RDF>
  </metadata>
  
  <sodipodi:namedview pagecolor="#ffffff" bordercolor="#666666" borderopacity="1" objecttolerance="10" gridtolerance="10" guidetolerance="10" inkscape:pageopacity="0" inkscape:pageshadow="2" inkscape:window-width="984" inkscape:window-height="675" id="namedview4" showgrid="false" inkscape:snap-global="true" fit-margin-top="0" fit-margin-left="0" fit-margin-right="0" fit-margin-bottom="0" inkscape:zoom="0.35355339" inkscape:cx="393.518" inkscape:cy="557.11198" inkscape:window-x="2" inkscape:window-y="0" inkscape:window-maximized="0" inkscape:current-layer="svg2"/>
  <rect style="fill:url(#radialGradient3876);fill-opacity:1;stroke:none" id="rect3846" width="940.02313" height="940.07001" x="0" y="0" ry="0"/>
  <path style="fill:url(#linearGradient5358);fill-opacity:1;stroke:none" d="M 22.506521,958.48022 0.00652096,935.9162 l 0,-467.95808 0,-467.958052822193 L 23.010741,23.004287 l 23.00422,23.00423 -0.50422,467.517863 -0.50422,467.51788 -22.5,-22.56404 z" id="path5350" inkscape:connector-curvature="0"/>
  <rect style="fill:url(#linearGradient5334);fill-opacity:1;stroke:none" id="rect3846-5" width="940.02313" height="940.07001" x="46.013416" y="46.011436" ry="0"/>
  <path style="fill:#ff0000;fill-opacity:1;stroke:none" d="m 250.18925,766.90009 0,-58.2927 9.9909,-1.0016 c 48.0155,-4.8132 70.9771,-15.1856 101.7589,-45.9674 35.9021,-35.9021 59.9439,-80.9018 99.7534,-186.7111 26.342,-70.0141 48.1782,-112.5206 82.3892,-160.3795 29.8595,-41.7714 77.1786,-75.62054 130.1649,-93.11174 26.1072,-8.6181 61.6196,-14.9378 83.9411,-14.9378 l 8.5671,0 0,58.34744 0,58.3473 -9.9909,0.8723 c -26.4777,2.3117 -47.9382,8.8797 -68.6584,21.0131 -27.562,16.1398 -61.4141,57.572 -80.4509,98.4651 -6.6059,14.1903 -10.2504,13.0969 43.65,13.0969 l 47.3642,0 0,59.1912 0,59.1913 -72.6559,0.384 -72.6558,0.3839 -7.9908,17.6625 c -20.4849,45.2789 -44.381,87.9189 -67.7927,120.9684 -44.9889,63.5095 -105.0493,98.0394 -188.9009,108.6031 -9.3619,1.1794 -21.8505,2.1497 -27.7525,2.1562 l -10.7309,0.012 0,-58.2927 z" id="path3820-1" inkscape:connector-curvature="0"/>
  <path style="fill:#800000;fill-opacity:1;stroke:none" d="m 250.23211,754.84 0,-58.2927 9.99088,-1.0016 c 48.01556,-4.8132 70.97713,-15.1856 101.75896,-45.9674 35.90213,-35.9021 59.94392,-80.9018 99.75341,-186.7111 26.34199,-70.0141 48.17817,-112.5206 82.38918,-160.3795 29.85949,-41.7714 77.17862,-75.6205 130.16491,-93.1116 26.10714,-8.6182 61.61957,-14.9379 83.94113,-14.9379 l 8.56701,0 0,58.3474 0,58.3473 -9.99088,0.8723 c -26.47767,2.3117 -47.93821,8.8797 -68.65839,21.0131 -27.56194,16.1398 -61.4141,57.572 -80.45085,98.4651 -6.60597,14.1903 -10.25044,13.0969 43.64996,13.0969 l 47.36417,0 0,59.1912 0,59.1913 -72.65584,0.384 -72.65582,0.3839 -7.99077,17.6625 c -20.48493,45.2789 -44.38105,87.9189 -67.79272,120.9684 -44.98893,63.5094 -105.04927,98.0394 -188.90095,108.6031 -9.36182,1.1794 -21.85042,2.1497 -27.75244,2.1562 l -10.73095,0.012 0,-58.2927 z" id="path3820-2" inkscape:connector-curvature="0"/>
  <text xml:space="preserve" style="font-size:32px;font-style:normal;font-variant:normal;font-weight:bold;font-stretch:normal;line-height:125%;letter-spacing:0px;word-spacing:0px;fill:url(#linearGradient5366);fill-opacity:1;stroke:none;font-family:Verdana;-inkscape-font-specification:Verdana Bold" x="495.67499" y="767.31891" id="text3032" sodipodi:linespacing="125%"><tspan sodipodi:role="line" id="tspan3034" x="495.67499" y="767.31891" style="fill:url(#linearGradient5366);fill-opacity:1">R</tspan></text>
  <path sodipodi:type="arc" style="fill:none;stroke:url(#linearGradient5382);stroke-width:15.8110199;stroke-miterlimit:4;stroke-opacity:1;stroke-dasharray:none" id="path3042" sodipodi:cx="482.15244" sodipodi:cy="725.64691" sodipodi:rx="53.284691" sodipodi:ry="53.284691" d="m 535.43713,725.64691 a 53.284691,53.284691 0 1 1 -106.56939,0 53.284691,53.284691 0 1 1 106.56939,0 z" transform="matrix(0.38072641,0,0,0.38072641,324.34471,479.36938)"/>
  <path style="fill:url(#linearGradient5326);fill-opacity:1;stroke:none" d="m 250.05909,760.13637 0,-58.29272 9.99088,-1.00152 c 48.01556,-4.81321 70.97713,-15.18562 101.75896,-45.96744 35.90213,-35.90213 59.94392,-80.90177 99.75341,-186.71106 26.34199,-70.01411 48.17817,-112.52063 82.38918,-160.3795 29.85949,-41.7714 77.17862,-75.6205 130.16491,-93.11169 26.10714,-8.61818 61.61957,-14.93782 83.94113,-14.93782 l 8.56701,0 0,58.34734 0,58.34733 -9.99088,0.87227 c -26.47767,2.31168 -47.93821,8.87975 -68.65839,21.01315 -27.56194,16.13981 -61.4141,57.57202 -80.45085,98.46506 -6.60597,14.19036 -10.25044,13.09687 43.64996,13.09687 l 47.36417,0 0,59.19127 0,59.19125 -72.65584,0.38399 -72.65582,0.38398 -7.99077,17.66242 c -20.48493,45.27896 -44.38105,87.9189 -67.79272,120.9684 -44.98893,63.50949 -105.04927,98.03945 -188.90095,108.60311 -9.36182,1.1794 -21.85042,2.1497 -27.75244,2.1562 l -10.73095,0.0118 0,-58.29271 z" id="path3820" inkscape:connector-curvature="0"/>
</symbol><symbol id="gulp" viewBox="0 0 128 128">
  <path fill-rule="evenodd" clip-rule="evenodd" fill="#EB4A4B" d="M36.965 35.459c.877 9.232 1.747 18.412 2.637 27.798 1.451-2.495 2.501-4.888 4.085-6.848 1.475-1.826 3.334-3.511 5.357-4.678 2.641-1.524 6.104-.089 6.96 2.614.23.725-.319 1.697-.511 2.556-.646-.341-1.479-.529-1.901-1.051-1.793-2.217-2.873-2.479-4.856-.563-3.699 3.576-5.779 8.056-6.573 13.091-.153.974.456 2.067.713 3.105 1.011-.348 2.185-.476 3.002-1.084 2.656-1.977 4.302-4.666 5.21-7.88.197-.696 1.265-1.145 1.933-1.708.32.658 1.05 1.433.897 1.954-1.407 4.84-2.934 9.649-4.536 14.429-.162.484-1.051.725-1.604 1.079-.223-.636-.692-1.302-.617-1.901.168-1.358.605-2.683.91-3.927l-7.24 3.333c.405 4.622.825 9.807 1.323 14.985.382 3.954 1.029 4.978 4.923 5.728 4.544.875 9.173 1.434 13.792 1.774 6.825.503 13.59-.119 20.23-1.904 2.472-.664 3.458-2.29 3.635-4.717.162-2.235.524-4.456.775-6.685.493-4.391.972-8.783 1.476-13.358-1.667 1.056-2.978 2.238-4.511 2.739-1.116.365-2.524-.169-3.803-.303.245-1.174.23-2.497.796-3.487.922-1.618 2.224-3.021 3.364-4.515l-.491-.591c-.817.483-1.832.8-2.413 1.485-1.182 1.394-2.339 2.886-3.13 4.52-1.324 2.735-2.333 5.622-3.518 8.426-.515 1.216-.959 3.076-2.684 2.366-1.845-.761-.547-2.386-.114-3.542.689-1.844 1.599-3.606 2.215-4.962-1.746.208-3.516.459-5.294.614-.752.064-1.646-.348-2.261-.07-2.045.924-3.341.553-3.766-1.711-.947.615-1.749 1.448-2.694 1.672-1.147.273-2.703.452-3.543-.121-.673-.459-.918-2.184-.688-3.196.457-2.012 1.311-3.946 2.122-5.859.502-1.185 1.007-3.077 2.701-2.253 1.674.813.154 2.185-.232 3.286-.599 1.702-1.209 3.401-1.813 5.101l.96.58c.914-.794 2.053-1.441 2.693-2.415 1.048-1.592 1.681-3.452 2.673-5.086.411-.677 1.296-1.065 1.967-1.584.136.862.462 1.748.354 2.58-.107.841-.698 1.61-.981 2.442-.425 1.246-.768 2.52-1.2 3.969 2.043.078 2.918-.782 3.495-2.299 1.826-4.793 3.672-9.581 5.679-14.3.343-.808 1.509-1.264 2.296-1.884.091.974.525 2.078.216 2.899-1.645 4.349-3.492 8.62-5.228 12.935-.293.727-.387 1.534-.572 2.304 3.059-1.375 5.612-2.895 6.544-6.146.228-.79 1.162-1.377 1.771-2.058l1.416 1.5c.43-.362.824-.774 1.291-1.075 1.47-.947 3.053-1.782 4.603-.315 1.604 1.517.39 2.995-.448 4.307-.912 1.431-2.029 2.73-3.057 4.086 2.312-1.49 5.469-2.158 5.889-5.378 1.024-7.865 1.924-15.746 2.837-23.625.271-2.332.416-4.679.627-7.109-18.21 4.409-36.029 4.436-54.088-.069zM44.781 96.828c.877 2.317 2.209 4.593 2.558 7.011.737 5.147.924 10.372 1.446 15.554.076.755.565 1.792 1.175 2.124 8.98 4.88 18.047 5.726 27.209.389 1.367-.796 1.62-1.847 1.797-3.325.857-7.181-1.051-14.798 3.54-21.56-12.856 3.189-25.403 3.288-37.725-.193zM75.772 36.748c4.362-.421 8.671-1.445 12.985-2.291.813-.159 1.535-.778 2.299-1.185-1.007-.885-1.878-1.311-2.788-1.418-4.53-.535-9.076-.947-13.603-1.508-.684-.085-1.905-.929-1.854-1.083 1.321-3.98 1.256-8.485 4.254-11.839 3.789-4.24 7.617-8.443 11.416-12.648-2.826-3.04-2.864-3.044-5.425-.383-1.448 1.504-2.771 3.15-4.342 4.512-5.813 5.038-9.896 11.005-10.692 18.872-.183 1.805-1.174 2.457-3.069 2.485-6.256.091-12.519.263-18.761.674-3.093.203-6.148.997-9.221 1.523l-.028 1.149c1.923.593 3.809 1.372 5.773 1.749 10.944 2.098 21.991 2.458 33.056 1.391zm-3.496-2.748c-2.477 2-4.524 2-6.501 0h6.501z"/>
</symbol><symbol id="html5" viewBox="0 0 128 128">
  <path fill="#E44D26" d="M19.037 113.876l-10.005-112.215h109.936l-10.016 112.198-45.019 12.48z"/><path fill="#F16529" d="M64 116.8l36.378-10.086 8.559-95.878h-44.937z"/><path fill="#EBEBEB" d="M64 52.455h-18.212l-1.258-14.094h19.47v-13.762h-34.511l.33 3.692 3.382 37.927h30.799zM64 88.198l-.061.017-15.327-4.14-.979-10.975h-13.817l1.928 21.609 28.193 7.826.063-.017z"/><path fill="#fff" d="M63.952 52.455v13.763h16.947l-1.597 17.849-15.35 4.143v14.319l28.215-7.82.207-2.325 3.234-36.233.335-3.696h-3.708zM63.952 24.599v13.762h33.244l.276-3.092.628-6.978.329-3.692z"/>
</symbol><symbol id="jquery" viewBox="0 0 128 128">
  <path fill="#0868AC" d="M9.625 32.181c-11.029 15.851-9.656 36.476-1.231 53.32.2.404.41.801.617 1.198l.394.759.246.437.439.786c.262.461.53.92.804 1.379l.459.756c.304.491.615.976.933 1.46l.398.614c.439.655.888 1.309 1.352 1.951l.039.05.228.308c.401.553.814 1.099 1.232 1.639l.464.59c.373.469.752.935 1.138 1.399l.435.52c.518.61 1.047 1.217 1.586 1.812l.033.033.061.068c.527.575 1.066 1.137 1.612 1.699l.517.521c.423.426.853.845 1.287 1.262l.527.5c.58.547 1.166 1.083 1.764 1.607l.028.022.307.262c.527.456 1.063.909 1.603 1.353l.664.529c.441.354.887.702 1.336 1.044l.714.543c.496.365.995.724 1.499 1.075l.546.387.15.107c.478.329.967.646 1.456.963l.63.42c.75.474 1.51.943 2.279 1.396l.63.355c.565.326 1.134.646 1.71.959.312.168.632.327.946.488.407.213.811.429 1.225.636l.283.137.501.242c.641.306 1.287.607 1.94.897l.41.184c.748.327 1.502.641 2.263.941l.551.217c.704.271 1.418.539 2.135.791l.268.093c.787.275 1.581.53 2.381.779l.575.172c.814.245 1.619.538 2.458.693 53.339 9.727 68.833-32.053 68.833-32.053-13.013 16.953-36.111 21.425-57.996 16.446-.829-.187-1.633-.446-2.442-.685l-.609-.185c-.79-.242-1.573-.497-2.352-.765l-.323-.117c-.698-.245-1.387-.504-2.074-.769l-.582-.229c-.752-.297-1.5-.607-2.239-.931l-.447-.198c-.635-.288-1.263-.578-1.889-.879l-.546-.262c-.491-.239-.977-.493-1.461-.743-.324-.171-.654-.332-.975-.51-.592-.317-1.172-.646-1.751-.982l-.591-.33c-.769-.452-1.528-.921-2.28-1.397l-.615-.41c-.545-.351-1.088-.709-1.623-1.079l-.522-.367c-.516-.365-1.027-.734-1.534-1.109l-.679-.514c-.465-.355-.927-.713-1.384-1.082l-.617-.495c-.582-.479-1.156-.959-1.724-1.453l-.189-.159c-.614-.539-1.216-1.092-1.812-1.647l-.511-.491c-.441-.42-.875-.843-1.302-1.277l-.51-.509c-.543-.556-1.076-1.119-1.598-1.69l-.079-.084c-.552-.604-1.092-1.221-1.621-1.844l-.424-.504c-.394-.475-.785-.956-1.167-1.442l-.427-.532c-.459-.596-.908-1.189-1.347-1.794-12.15-16.574-16.516-39.432-6.805-58.204M43.862 18.825c-7.977 11.478-7.543 26.844-1.321 38.983 1.043 2.035 2.216 4.01 3.528 5.889 1.195 1.713 2.52 3.751 4.106 5.127.575.633 1.176 1.251 1.79 1.858l.472.465c.596.578 1.201 1.146 1.828 1.698l.074.064.018.018c.693.608 1.408 1.191 2.135 1.767l.485.378c.729.559 1.472 1.107 2.233 1.631l.065.049c.336.232.678.448 1.019.672l.483.319c.544.349 1.095.689 1.655 1.015l.235.136c.483.278.972.552 1.463.818l.521.271c.339.177.678.358 1.023.53l.155.07c.703.346 1.412.68 2.136.995l.472.194c.579.246 1.164.486 1.75.71l.75.275c.533.198 1.068.378 1.607.559l.727.233c.767.238 1.525.539 2.324.672 41.183 6.823 50.691-24.886 50.691-24.886-8.57 12.343-25.168 18.233-42.879 13.635-.787-.207-1.562-.431-2.333-.674l-.701-.227c-.548-.177-1.092-.365-1.631-.562l-.736-.274c-.592-.228-1.176-.462-1.756-.708l-.473-.2c-.727-.316-1.443-.65-2.148-.999-.363-.177-.72-.364-1.078-.548l-.622-.32c-.458-.248-.914-.506-1.363-.77l-.326-.185c-.558-.325-1.107-.661-1.651-1.008l-.498-.332c-.359-.232-.717-.469-1.069-.707-.759-.524-1.498-1.072-2.226-1.628l-.501-.395c-7.752-6.12-13.898-14.486-16.819-23.971-3.062-9.836-2.402-20.878 2.903-29.84M72.657 8.847c-4.702 6.92-5.164 15.514-1.901 23.156 3.441 8.113 10.491 14.476 18.72 17.495.339.125.679.237 1.022.354l.451.143c.485.152.966.329 1.467.424 22.74 4.394 28.908-11.669 30.549-14.034-5.402 7.779-14.482 9.646-25.623 6.942-.88-.213-1.847-.531-2.695-.832-1.088-.388-2.16-.83-3.201-1.329-1.978-.951-3.864-2.104-5.612-3.424-9.969-7.565-16.162-21.994-9.657-33.745"/>
</symbol><symbol id="js" viewBox="0 0 630 630">
<rect width="630" height="630" fill="#f7df1e"/>
<path d="m423.2 492.19c12.69 20.72 29.2 35.95 58.4 35.95 24.53 0 40.2-12.26 40.2-29.2 0-20.3-16.1-27.49-43.1-39.3l-14.8-6.35c-42.72-18.2-71.1-41-71.1-89.2 0-44.4 33.83-78.2 86.7-78.2 37.64 0 64.7 13.1 84.2 47.4l-46.1 29.6c-10.15-18.2-21.1-25.37-38.1-25.37-17.34 0-28.33 11-28.33 25.37 0 17.76 11 24.95 36.4 35.95l14.8 6.34c50.3 21.57 78.7 43.56 78.7 93 0 53.3-41.87 82.5-98.1 82.5-54.98 0-90.5-26.2-107.88-60.54zm-209.13 5.13c9.3 16.5 17.76 30.45 38.1 30.45 19.45 0 31.72-7.61 31.72-37.2v-201.3h59.2v202.1c0 61.3-35.94 89.2-88.4 89.2-47.4 0-74.85-24.53-88.81-54.075z"/>
</symbol><symbol id="mongo" viewBox="0 0 128 128">
    <path fill-rule="evenodd" clip-rule="evenodd" fill="#439934" d="M88.038 42.812c1.605 4.643 2.761 9.383 3.141 14.296.472 6.095.256 12.147-1.029 18.142-.035.165-.109.32-.164.48-.403.001-.814-.049-1.208.012-3.329.523-6.655 1.065-9.981 1.604-3.438.557-6.881 1.092-10.313 1.687-1.216.21-2.721-.041-3.212 1.641-.014.046-.154.054-.235.08l.166-10.051c-.057-8.084-.113-16.168-.169-24.252l1.602-.275c2.62-.429 5.24-.864 7.862-1.281 3.129-.497 6.261-.98 9.392-1.465 1.381-.215 2.764-.412 4.148-.618z"/><path fill-rule="evenodd" clip-rule="evenodd" fill="#45A538" d="M61.729 110.054c-1.69-1.453-3.439-2.842-5.059-4.37-8.717-8.222-15.093-17.899-18.233-29.566-.865-3.211-1.442-6.474-1.627-9.792-.13-2.322-.318-4.665-.154-6.975.437-6.144 1.325-12.229 3.127-18.147l.099-.138c.175.233.427.439.516.702 1.759 5.18 3.505 10.364 5.242 15.551 5.458 16.3 10.909 32.604 16.376 48.9.107.318.384.579.583.866l-.87 2.969z"/><path fill-rule="evenodd" clip-rule="evenodd" fill="#46A037" d="M88.038 42.812c-1.384.206-2.768.403-4.149.616-3.131.485-6.263.968-9.392 1.465-2.622.417-5.242.852-7.862 1.281l-1.602.275-.012-1.045c-.053-.859-.144-1.717-.154-2.576-.069-5.478-.112-10.956-.18-16.434-.042-3.429-.105-6.857-.175-10.285-.043-2.13-.089-4.261-.185-6.388-.052-1.143-.236-2.28-.311-3.423-.042-.657.016-1.319.029-1.979.817 1.583 1.616 3.178 2.456 4.749 1.327 2.484 3.441 4.314 5.344 6.311 7.523 7.892 12.864 17.068 16.193 27.433z"/><path fill-rule="evenodd" clip-rule="evenodd" fill="#409433" d="M65.036 80.753c.081-.026.222-.034.235-.08.491-1.682 1.996-1.431 3.212-1.641 3.432-.594 6.875-1.13 10.313-1.687 3.326-.539 6.652-1.081 9.981-1.604.394-.062.805-.011 1.208-.012-.622 2.22-1.112 4.488-1.901 6.647-.896 2.449-1.98 4.839-3.131 7.182-1.72 3.503-3.863 6.77-6.353 9.763-1.919 2.308-4.058 4.441-6.202 6.548-1.185 1.165-2.582 2.114-3.882 3.161l-.337-.23-1.214-1.038-1.256-2.753c-.865-3.223-1.319-6.504-1.394-9.838l.023-.561.171-2.426c.057-.828.133-1.655.168-2.485.129-2.982.241-5.964.359-8.946z"/><path fill-rule="evenodd" clip-rule="evenodd" fill="#4FAA41" d="M65.036 80.753c-.118 2.982-.23 5.964-.357 8.947-.035.83-.111 1.657-.168 2.485l-.765.289c-1.699-5.002-3.399-9.951-5.062-14.913-2.75-8.209-5.467-16.431-8.213-24.642-2.217-6.628-4.452-13.249-6.7-19.867-.105-.31-.407-.552-.617-.826l4.896-9.002c.168.292.39.565.496.879 2.265 6.703 4.526 13.407 6.768 20.118 2.916 8.73 5.814 17.467 8.728 26.198.116.349.308.671.491 1.062l.67-.78c-.056 3.351-.112 6.701-.167 10.052z"/><path fill-rule="evenodd" clip-rule="evenodd" fill="#4AA73C" d="M43.155 32.227c.21.274.511.516.617.826 2.248 6.618 4.483 13.239 6.7 19.867 2.746 8.211 5.463 16.433 8.213 24.642 1.662 4.961 3.362 9.911 5.062 14.913l.765-.289-.171 2.426-.155.559c-.266 2.656-.49 5.318-.814 7.968-.163 1.328-.509 2.632-.772 3.947-.198-.287-.476-.548-.583-.866-5.467-16.297-10.918-32.6-16.376-48.9-1.737-5.187-3.483-10.371-5.242-15.551-.089-.263-.34-.469-.516-.702 1.09-2.947 2.181-5.894 3.272-8.84z"/><path fill-rule="evenodd" clip-rule="evenodd" fill="#57AE47" d="M65.202 70.702l-.67.78c-.183-.391-.375-.714-.491-1.062-2.913-8.731-5.812-17.468-8.728-26.198-2.242-6.711-4.503-13.415-6.768-20.118-.105-.314-.327-.588-.496-.879l6.055-7.965c.191.255.463.482.562.769 1.681 4.921 3.347 9.848 5.003 14.778 1.547 4.604 3.071 9.215 4.636 13.813.105.308.47.526.714.786l.012 1.045c.058 8.082.115 16.167.171 24.251z"/><path fill-rule="evenodd" clip-rule="evenodd" fill="#60B24F" d="M65.021 45.404c-.244-.26-.609-.478-.714-.786-1.565-4.598-3.089-9.209-4.636-13.813-1.656-4.93-3.322-9.856-5.003-14.778-.099-.287-.371-.514-.562-.769 1.969-1.928 3.877-3.925 5.925-5.764 1.821-1.634 3.285-3.386 3.352-5.968.003-.107.059-.214.145-.514l.519 1.306c-.013.661-.072 1.322-.029 1.979.075 1.143.259 2.28.311 3.423.096 2.127.142 4.258.185 6.388.069 3.428.132 6.856.175 10.285.067 5.478.111 10.956.18 16.434.008.861.098 1.718.152 2.577z"/><path fill-rule="evenodd" clip-rule="evenodd" fill="#A9AA88" d="M62.598 107.085c.263-1.315.609-2.62.772-3.947.325-2.649.548-5.312.814-7.968l.066-.01.066.011c.075 3.334.529 6.615 1.394 9.838-.176.232-.425.439-.518.701-.727 2.05-1.412 4.116-2.143 6.166-.1.28-.378.498-.574.744l-.747-2.566.87-2.969z"/><path fill-rule="evenodd" clip-rule="evenodd" fill="#B6B598" d="M62.476 112.621c.196-.246.475-.464.574-.744.731-2.05 1.417-4.115 2.143-6.166.093-.262.341-.469.518-.701l1.255 2.754c-.248.352-.59.669-.728 1.061l-2.404 7.059c-.099.283-.437.483-.663.722l-.695-3.985z"/><path fill-rule="evenodd" clip-rule="evenodd" fill="#C2C1A7" d="M63.171 116.605c.227-.238.564-.439.663-.722l2.404-7.059c.137-.391.48-.709.728-1.061l1.215 1.037c-.587.58-.913 1.25-.717 2.097l-.369 1.208c-.168.207-.411.387-.494.624-.839 2.403-1.64 4.819-2.485 7.222-.107.305-.404.544-.614.812-.109-1.387-.22-2.771-.331-4.158z"/><path fill-rule="evenodd" clip-rule="evenodd" fill="#CECDB7" d="M63.503 120.763c.209-.269.506-.508.614-.812.845-2.402 1.646-4.818 2.485-7.222.083-.236.325-.417.494-.624l-.509 5.545c-.136.157-.333.294-.398.477-.575 1.614-1.117 3.24-1.694 4.854-.119.333-.347.627-.525.938-.158-.207-.441-.407-.454-.623-.051-.841-.016-1.688-.013-2.533z"/><path fill-rule="evenodd" clip-rule="evenodd" fill="#DBDAC7" d="M63.969 123.919c.178-.312.406-.606.525-.938.578-1.613 1.119-3.239 1.694-4.854.065-.183.263-.319.398-.477l.012 3.64-1.218 3.124-1.411-.495z"/><path fill-rule="evenodd" clip-rule="evenodd" fill="#EBE9DC" d="M65.38 124.415l1.218-3.124.251 3.696-1.469-.572z"/><path fill-rule="evenodd" clip-rule="evenodd" fill="#CECDB7" d="M67.464 110.898c-.196-.847.129-1.518.717-2.097l.337.23-1.054 1.867z"/><path fill-rule="evenodd" clip-rule="evenodd" fill="#4FAA41" d="M64.316 95.172l-.066-.011-.066.01.155-.559-.023.56z"/>
</symbol><symbol id="mysql" viewBox="0 0 128 128">
<path fill="#00618A" d="M116.948 97.807c-6.863-.187-12.104.452-16.585 2.341-1.273.537-3.305.552-3.513 2.147.7.733.809 1.829 1.365 2.731 1.07 1.73 2.876 4.052 4.488 5.268 1.762 1.33 3.577 2.751 5.465 3.902 3.358 2.047 7.107 3.217 10.34 5.268 1.906 1.21 3.799 2.733 5.658 4.097.92.675 1.537 1.724 2.732 2.147v-.194c-.628-.8-.79-1.898-1.366-2.733l-2.537-2.537c-2.48-3.292-5.629-6.184-8.976-8.585-2.669-1.916-8.642-4.504-9.755-7.609l-.195-.195c1.892-.214 4.107-.898 5.854-1.367 2.934-.786 5.556-.583 8.585-1.365l4.097-1.171v-.78c-1.531-1.571-2.623-3.651-4.292-5.073-4.37-3.72-9.138-7.437-14.048-10.537-2.724-1.718-6.089-2.835-8.976-4.292-.971-.491-2.677-.746-3.318-1.562-1.517-1.932-2.342-4.382-3.511-6.633-2.449-4.717-4.854-9.868-7.024-14.831-1.48-3.384-2.447-6.72-4.293-9.756-8.86-14.567-18.396-23.358-33.169-32-3.144-1.838-6.929-2.563-10.929-3.513-2.145-.129-4.292-.26-6.438-.391-1.311-.546-2.673-2.149-3.902-2.927-4.894-3.092-17.448-9.817-21.072-.975-2.289 5.581 3.421 11.025 5.462 13.854 1.434 1.982 3.269 4.207 4.293 6.438.674 1.467.79 2.938 1.367 4.489 1.417 3.822 2.652 7.98 4.487 11.511.927 1.788 1.949 3.67 3.122 5.268.718.981 1.951 1.413 2.145 2.927-1.204 1.686-1.273 4.304-1.95 6.44-3.05 9.615-1.899 21.567 2.537 28.683 1.36 2.186 4.567 6.871 8.975 5.073 3.856-1.57 2.995-6.438 4.098-10.732.249-.973.096-1.689.585-2.341v.195l3.513 7.024c2.6 4.187 7.212 8.562 11.122 11.514 2.027 1.531 3.623 4.177 6.244 5.073v-.196h-.195c-.508-.791-1.303-1.119-1.951-1.755-1.527-1.497-3.225-3.358-4.487-5.073-3.556-4.827-6.698-10.11-9.561-15.609-1.368-2.627-2.557-5.523-3.709-8.196-.444-1.03-.438-2.589-1.364-3.122-1.263 1.958-3.122 3.542-4.098 5.854-1.561 3.696-1.762 8.204-2.341 12.878-.342.122-.19.038-.391.194-2.718-.655-3.672-3.452-4.683-5.853-2.554-6.07-3.029-15.842-.781-22.829.582-1.809 3.21-7.501 2.146-9.172-.508-1.666-2.184-2.63-3.121-3.903-1.161-1.574-2.319-3.646-3.124-5.464-2.09-4.731-3.066-10.044-5.267-14.828-1.053-2.287-2.832-4.602-4.293-6.634-1.617-2.253-3.429-3.912-4.683-6.635-.446-.968-1.051-2.518-.391-3.513.21-.671.508-.951 1.171-1.17 1.132-.873 4.284.29 5.462.779 3.129 1.3 5.741 2.538 8.392 4.294 1.271.844 2.559 2.475 4.097 2.927h1.756c2.747.631 5.824.195 8.391.975 4.536 1.378 8.601 3.523 12.292 5.854 11.246 7.102 20.442 17.21 26.732 29.269 1.012 1.942 1.45 3.794 2.341 5.854 1.798 4.153 4.063 8.426 5.852 12.488 1.786 4.052 3.526 8.141 6.05 11.513 1.327 1.772 6.451 2.723 8.781 3.708 1.632.689 4.307 1.409 5.854 2.34 2.953 1.782 5.815 3.903 8.586 5.855 1.383.975 5.64 3.116 5.852 4.879zM29.729 23.466c-1.431-.027-2.443.156-3.513.389v.195h.195c.683 1.402 1.888 2.306 2.731 3.513.65 1.367 1.301 2.732 1.952 4.097l.194-.193c1.209-.853 1.762-2.214 1.755-4.294-.484-.509-.555-1.147-.975-1.755-.556-.811-1.635-1.272-2.339-1.952z"/>
</symbol><symbol id="node" viewBox="0 0 128 128">
  <path fill="#83CD29" d="M114.325 80.749c-.29 0-.578-.076-.832-.224l-2.65-1.568c-.396-.221-.203-.3-.072-.345.528-.184.635-.227 1.198-.545.059-.033.136-.021.197.015l2.035 1.209c.074.041.179.041.246 0l7.937-4.581c.075-.042.122-.127.122-.215v-9.16c0-.09-.047-.173-.123-.219l-7.934-4.577c-.074-.042-.171-.042-.245 0l-7.933 4.578c-.076.045-.125.131-.125.218v9.16c0 .088.049.171.125.212l2.174 1.257c1.18.589 1.903-.105 1.903-.803v-9.045c0-.127.103-.228.23-.228h1.007c.125 0 .229.101.229.228v9.045c0 1.574-.857 2.477-2.35 2.477-.459 0-.82 0-1.828-.496l-2.081-1.198c-.515-.298-.832-.854-.832-1.448v-9.16c0-.595.317-1.15.832-1.446l7.937-4.587c.502-.283 1.169-.283 1.667 0l7.937 4.587c.514.297.833.852.833 1.446v9.16c0 .595-.319 1.148-.833 1.448l-7.937 4.582c-.252.147-.539.223-.834.223M116.778 74.438c-3.475 0-4.202-1.595-4.202-2.932 0-.126.103-.229.23-.229h1.026c.115 0 .21.082.228.194.154 1.045.617 1.572 2.718 1.572 1.671 0 2.383-.378 2.383-1.266 0-.512-.202-.891-2.8-1.146-2.172-.215-3.515-.694-3.515-2.433 0-1.601 1.35-2.557 3.612-2.557 2.543 0 3.801.883 3.96 2.777.006.064-.017.127-.06.176-.044.045-.104.073-.168.073h-1.031c-.107 0-.201-.075-.223-.179-.248-1.1-.848-1.451-2.479-1.451-1.825 0-2.037.637-2.037 1.112 0 .577.25.745 2.715 1.071 2.439.323 3.598.779 3.598 2.494.001 1.733-1.441 2.724-3.955 2.724"/><path fill="#404137" d="M97.982 68.43c.313-.183.506-.517.506-.88v-2.354c0-.362-.192-.696-.506-.879l-8.364-4.856c-.315-.183-.703-.184-1.019-.002l-8.416 4.859c-.314.182-.508.517-.508.88v9.716c0 .365.196.703.514.884l8.363 4.765c.308.177.686.178.997.006l5.058-2.812c.161-.09.261-.258.262-.44.001-.184-.097-.354-.256-.445l-8.468-4.86c-.159-.091-.256-.259-.256-.44v-3.046c0-.182.097-.349.254-.439l2.637-1.52c.156-.091.35-.091.507 0l2.637 1.52c.158.091.255.258.255.439v2.396c0 .183.097.351.254.441.158.091.352.091.51-.001l5.039-2.932"/><path fill="#83CD29" d="M88.984 67.974c.061-.034.135-.034.195 0l1.615.933c.06.035.097.1.097.169v1.865c0 .07-.037.134-.097.169l-1.615.932c-.06.035-.135.035-.195 0l-1.614-.932c-.061-.035-.098-.099-.098-.169v-1.865c0-.069.037-.134.098-.169l1.614-.933"/><path fill="#404137" d="M67.083 71.854c0 .09-.048.174-.127.22l-2.89 1.666c-.079.046-.176.046-.254 0l-2.89-1.666c-.079-.046-.127-.13-.127-.22v-3.338c0-.09.049-.175.127-.221l2.89-1.668c.079-.047.176-.047.255 0l2.891 1.668c.078.046.126.131.126.221v3.338zm.781-24.716c-.157-.087-.349-.085-.505.006-.155.092-.251.258-.251.438v12.915c0 .126-.068.244-.177.308-.11.063-.246.063-.356 0l-2.108-1.215c-.314-.181-.701-.181-1.015 0l-8.418 4.858c-.315.182-.509.518-.509.881v9.719c0 .363.194.698.508.881l8.418 4.861c.314.182.702.182 1.017 0l8.42-4.861c.314-.183.508-.518.508-.881v-24.227c0-.368-.2-.708-.521-.888l-5.011-2.795"/><path fill="#83CD29" d="M38.238 59.407c.314-.182.702-.182 1.016 0l8.418 4.857c.314.182.508.518.508.881v9.722c0 .363-.194.699-.508.881l-8.417 4.861c-.314.181-.702.181-1.017 0l-8.415-4.861c-.314-.182-.508-.518-.508-.881v-9.723c0-.362.194-.698.508-.88l8.415-4.857"/><path fill="#404137" d="M22.93 65.064c0-.366-.192-.702-.508-.883l-8.415-4.843c-.144-.084-.303-.127-.464-.133h-.087c-.16.006-.32.049-.464.133l-8.416 4.843c-.313.181-.509.517-.509.883l.018 13.04c0 .182.095.351.254.439.156.094.349.094.505 0l5-2.864c.316-.188.509-.519.509-.882v-6.092c0-.364.192-.699.507-.881l2.13-1.226c.158-.093.332-.137.508-.137.174 0 .352.044.507.137l2.128 1.226c.315.182.509.517.509.881v6.092c0 .363.195.696.509.882l5 2.864c.157.094.353.094.508 0 .155-.089.252-.258.252-.439l.019-13.04"/>
</symbol><symbol id="paypal" viewBox="0 0 256 302"><g><path d="M217.168476,23.5070146 C203.234077,7.62479651 178.045612,0.815753338 145.823355,0.815753338 L52.3030619,0.815753338 C45.7104431,0.815753338 40.1083819,5.6103852 39.0762042,12.1114399 L0.136468302,259.076601 C-0.637664968,263.946149 3.13311322,268.357876 8.06925331,268.357876 L65.804612,268.357876 L80.3050438,176.385849 L79.8555471,179.265958 C80.8877248,172.764903 86.4481659,167.970272 93.0324607,167.970272 L120.46841,167.970272 C174.366398,167.970272 216.569147,146.078116 228.897012,82.7490197 C229.263268,80.8761167 229.579581,79.0531577 229.854273,77.2718188 C228.297683,76.4477414 228.297683,76.4477414 229.854273,77.2718188 C233.525163,53.8646924 229.829301,37.9325302 217.168476,23.5070146" fill="#27346A"/><path d="M102.396976,68.8395929 C103.936919,68.1070797 105.651665,67.699203 107.449652,67.699203 L180.767565,67.699203 C189.449511,67.699203 197.548776,68.265236 204.948824,69.4555699 C207.071448,69.7968545 209.127479,70.1880831 211.125242,70.6375799 C213.123006,71.0787526 215.062501,71.5781934 216.943728,72.1275783 C217.884341,72.4022708 218.808307,72.6852872 219.715624,72.9849517 C223.353218,74.2002577 226.741092,75.61534 229.854273,77.2718188 C233.525163,53.8563683 229.829301,37.9325302 217.168476,23.5070146 C203.225753,7.62479651 178.045612,0.815753338 145.823355,0.815753338 L52.2947379,0.815753338 C45.7104431,0.815753338 40.1083819,5.6103852 39.0762042,12.1114399 L0.136468302,259.068277 C-0.637664968,263.946149 3.13311322,268.349552 8.0609293,268.349552 L65.804612,268.349552 L95.8875974,77.5798073 C96.5035744,73.6675208 99.0174265,70.4627756 102.396976,68.8395929 Z" fill="#27346A"/><path d="M228.897012,82.7490197 C216.569147,146.069792 174.366398,167.970272 120.46841,167.970272 L93.0241367,167.970272 C86.4398419,167.970272 80.8794007,172.764903 79.8555471,179.265958 L61.8174095,293.621258 C61.1431644,297.883153 64.4394738,301.745495 68.7513129,301.745495 L117.421821,301.745495 C123.182038,301.745495 128.084882,297.550192 128.983876,291.864891 L129.458344,289.384335 L138.631407,231.249423 L139.222412,228.036354 C140.121406,222.351053 145.02425,218.15575 150.784467,218.15575 L158.067979,218.15575 C205.215193,218.15575 242.132193,199.002194 252.920115,143.605884 C257.423406,120.456802 255.092683,101.128442 243.181019,87.5519756 C239.568397,83.4399129 235.081754,80.0437153 229.854273,77.2718188 C229.571257,79.0614817 229.263268,80.8761167 228.897012,82.7490197 L228.897012,82.7490197 Z" fill="#2790C3"/><path d="M216.952052,72.1275783 C215.070825,71.5781934 213.13133,71.0787526 211.133566,70.6375799 C209.135803,70.1964071 207.071448,69.8051785 204.957148,69.4638939 C197.548776,68.265236 189.457835,67.699203 180.767565,67.699203 L107.457976,67.699203 C105.651665,67.699203 103.936919,68.1070797 102.4053,68.8479169 C99.0174265,70.4710996 96.5118984,73.6675208 95.8959214,77.5881313 L80.3133678,176.385849 L79.8638711,179.265958 C80.8877248,172.764903 86.4481659,167.970272 93.0324607,167.970272 L120.476734,167.970272 C174.374722,167.970272 216.577471,146.078116 228.905336,82.7490197 C229.271592,80.8761167 229.579581,79.0614817 229.862597,77.2718188 C226.741092,75.623664 223.361542,74.2002577 219.723948,72.9932757 C218.816631,72.6936112 217.892665,72.4022708 216.952052,72.1275783" fill="#1F264F"/></g></symbol><symbol id="php" viewBox="0 0 128 128">
  <path fill="#6181B6" d="M64 33.039c-33.74 0-61.094 13.862-61.094 30.961s27.354 30.961 61.094 30.961 61.094-13.862 61.094-30.961-27.354-30.961-61.094-30.961zm-15.897 36.993c-1.458 1.364-3.077 1.927-4.86 2.507-1.783.581-4.052.461-6.811.461h-6.253l-1.733 10h-7.301l6.515-34h14.04c4.224 0 7.305 1.215 9.242 3.432 1.937 2.217 2.519 5.364 1.747 9.337-.319 1.637-.856 3.159-1.614 4.515-.759 1.357-1.75 2.624-2.972 3.748zm21.311 2.968l2.881-14.42c.328-1.688.208-2.942-.361-3.555-.57-.614-1.782-1.025-3.635-1.025h-5.79l-3.731 19h-7.244l6.515-33h7.244l-1.732 9h6.453c4.061 0 6.861.815 8.402 2.231s2.003 3.356 1.387 6.528l-3.031 15.241h-7.358zm40.259-11.178c-.318 1.637-.856 3.133-1.613 4.488-.758 1.357-1.748 2.598-2.971 3.722-1.458 1.364-3.078 1.927-4.86 2.507-1.782.581-4.053.461-6.812.461h-6.253l-1.732 10h-7.301l6.514-34h14.041c4.224 0 7.305 1.215 9.241 3.432 1.935 2.217 2.518 5.418 1.746 9.39zM95.919 54h-5.001l-2.727 14h4.442c2.942 0 5.136-.29 6.576-1.4 1.442-1.108 2.413-2.828 2.918-5.421.484-2.491.264-4.434-.66-5.458-.925-1.024-2.774-1.721-5.548-1.721zM38.934 54h-5.002l-2.727 14h4.441c2.943 0 5.136-.29 6.577-1.4 1.441-1.108 2.413-2.828 2.917-5.421.484-2.491.264-4.434-.66-5.458s-2.772-1.721-5.546-1.721z"/>
</symbol><symbol id="postgres" viewBox="0 0 128 128">
<path d="M93.809 92.112c.785-6.533.55-7.492 5.416-6.433l1.235.108c3.742.17 8.637-.602 11.513-1.938 6.191-2.873 9.861-7.668 3.758-6.409-13.924 2.873-14.881-1.842-14.881-1.842 14.703-21.815 20.849-49.508 15.543-56.287-14.47-18.489-39.517-9.746-39.936-9.52l-.134.025c-2.751-.571-5.83-.912-9.289-.968-6.301-.104-11.082 1.652-14.709 4.402 0 0-44.683-18.409-42.604 23.151.442 8.841 12.672 66.898 27.26 49.362 5.332-6.412 10.484-11.834 10.484-11.834 2.558 1.699 5.622 2.567 8.834 2.255l.249-.212c-.078.796-.044 1.575.099 2.497-3.757 4.199-2.653 4.936-10.166 6.482-7.602 1.566-3.136 4.355-.221 5.084 3.535.884 11.712 2.136 17.238-5.598l-.22.882c1.474 1.18 1.375 8.477 1.583 13.69.209 5.214.558 10.079 1.621 12.948 1.063 2.868 2.317 10.256 12.191 8.14 8.252-1.764 14.561-4.309 15.136-27.985"/><path d="M75.458 125.256c-4.367 0-7.211-1.689-8.938-3.32-2.607-2.46-3.641-5.629-4.259-7.522l-.267-.79c-1.244-3.358-1.666-8.193-1.916-14.419-.038-.935-.064-1.898-.093-2.919-.021-.747-.047-1.684-.085-2.664-1.553.742-3.213 1.27-4.962 1.568-3.079.526-6.389.356-9.84-.507-2.435-.609-4.965-1.871-6.407-3.82-4.203 3.681-8.212 3.182-10.396 2.453-3.853-1.285-7.301-4.896-10.542-11.037-2.309-4.375-4.542-10.075-6.638-16.943-3.65-11.96-5.969-24.557-6.175-28.693-.648-12.945 2.837-22.203 10.356-27.514 11.861-8.378 29.832-3.451 36.384-1.214 4.402-2.653 9.581-3.944 15.433-3.851 3.143.051 6.136.327 8.916.823 2.9-.912 8.628-2.221 15.185-2.139 12.081.144 22.092 4.852 28.949 13.615 4.894 6.252 2.474 19.381.597 26.651-2.642 10.226-7.271 21.102-12.957 30.57 1.544.011 3.781-.174 6.961-.831 6.274-1.295 8.109 2.069 8.607 3.575 1.995 6.042-6.677 10.608-9.382 11.864-3.466 1.609-9.117 2.589-13.745 2.377l-.202-.013-1.216-.107-.12 1.014-.116.991c-.311 11.999-2.025 19.598-5.552 24.619-3.697 5.264-8.835 6.739-13.361 7.709-1.544.33-2.947.474-4.219.474zm-9.19-43.671c2.819 2.256 3.066 6.501 3.287 14.434.028.99.054 1.927.089 2.802.106 2.65.355 8.855 1.327 11.477.137.371.26.747.39 1.146 1.083 3.316 1.626 4.979 6.309 3.978 3.931-.843 5.952-1.599 7.534-3.851 2.299-3.274 3.585-9.86 3.821-19.575l4.783.116-4.75-.57.14-1.186c.455-3.91.783-6.734 3.396-8.602 2.097-1.498 4.486-1.353 6.389-1.01-2.091-1.58-2.669-3.433-2.823-4.193l-.399-1.965 1.121-1.663c6.457-9.58 11.781-21.354 14.609-32.304 2.906-11.251 2.02-17.226 1.134-18.356-11.729-14.987-32.068-8.799-34.192-8.097l-.359.194-1.8.335-.922-.191c-2.542-.528-5.366-.82-8.393-.869-4.756-.08-8.593 1.044-11.739 3.431l-2.183 1.655-2.533-1.043c-5.412-2.213-21.308-6.662-29.696-.721-4.656 3.298-6.777 9.76-6.305 19.207.156 3.119 2.275 14.926 5.771 26.377 4.831 15.825 9.221 21.082 11.054 21.693.32.108 1.15-.537 1.976-1.529 5.37-6.459 10.479-11.844 10.694-12.07l2.77-2.915 3.349 2.225c1.35.897 2.839 1.406 4.368 1.502l7.987-6.812-1.157 11.808c-.026.265-.039.626.065 1.296l.348 2.238-1.51 1.688-.174.196 4.388 2.025 1.836-2.301z"/><path fill="#336791" d="M115.731 77.44c-13.925 2.873-14.882-1.842-14.882-1.842 14.703-21.816 20.849-49.51 15.545-56.287-14.47-18.488-39.519-9.745-39.937-9.518l-.135.024c-2.751-.571-5.83-.911-9.291-.967-6.301-.103-11.08 1.652-14.707 4.402 0 0-44.684-18.408-42.606 23.151.442 8.842 12.672 66.899 27.26 49.363 5.332-6.412 10.483-11.834 10.483-11.834 2.559 1.699 5.622 2.567 8.833 2.255l.25-.212c-.078.796-.042 1.575.1 2.497-3.758 4.199-2.654 4.936-10.167 6.482-7.602 1.566-3.136 4.355-.22 5.084 3.534.884 11.712 2.136 17.237-5.598l-.221.882c1.473 1.18 2.507 7.672 2.334 13.557-.174 5.885-.29 9.926.871 13.082 1.16 3.156 2.316 10.256 12.192 8.14 8.252-1.768 12.528-6.351 13.124-13.995.422-5.435 1.377-4.631 1.438-9.49l.767-2.3c.884-7.367.14-9.743 5.225-8.638l1.235.108c3.742.17 8.639-.602 11.514-1.938 6.19-2.871 9.861-7.667 3.758-6.408z"/><path fill="#fff" d="M75.957 122.307c-8.232 0-10.84-6.519-11.907-9.185-1.562-3.907-1.899-19.069-1.551-31.503.024-.881.754-1.577 1.64-1.55.881.024 1.575.758 1.55 1.639-.401 14.341.168 27.337 1.324 30.229 1.804 4.509 4.54 8.453 12.275 6.796 7.343-1.575 10.093-4.359 11.318-11.46.94-5.449 2.799-20.951 3.028-24.01.066-.878.828-1.539 1.71-1.472.878.066 1.537.832 1.472 1.71-.239 3.185-2.089 18.657-3.065 24.315-1.446 8.387-5.185 12.191-13.794 14.037-1.463.313-2.792.453-4 .454zM31.321 90.466c-.785 0-1.498-.145-2.116-.35-5.347-1.784-10.44-10.492-15.138-25.885-3.576-11.717-5.842-23.947-6.041-27.922-.589-11.784 2.445-20.121 9.02-24.778 13.007-9.216 34.888-.44 35.813-.062.815.333 1.207 1.265.873 2.081-.333.815-1.265 1.206-2.08.874-.211-.086-21.193-8.492-32.768-.285-5.622 3.986-8.203 11.392-7.672 22.011.167 3.349 2.284 15.285 5.906 27.149 4.194 13.742 8.967 22.413 13.096 23.79.648.216 2.62.873 5.439-2.517 5.305-6.382 10.178-11.476 10.227-11.526.61-.636 1.62-.657 2.256-.047.636.61.658 1.62.048 2.255-.048.05-4.847 5.067-10.077 11.359-2.477 2.979-4.851 3.853-6.786 3.853zM100.75 77.021c-.307 0-.617-.088-.891-.272-.73-.493-.924-1.484-.431-2.215 14.863-22.055 20.08-48.704 15.612-54.414-5.624-7.186-13.565-10.939-23.604-11.156-7.433-.16-13.341 1.738-14.307 2.069l-.243.099c-.971.305-1.716-.227-1.997-.849-.333-.736-.06-1.606.631-2.025.046-.027.192-.089.429-.176l-.021.006.021-.007c1.641-.601 7.639-2.4 15.068-2.315 11.108.118 20.284 4.401 26.534 12.388 2.957 3.779 2.964 12.485.019 23.887-3.002 11.625-8.651 24.118-15.497 34.277-.306.457-.81.703-1.323.703zM101.51 87.231c-2.538 0-4.813-.358-6.175-1.174-1.4-.839-1.667-1.979-1.702-2.584-.382-6.71 3.32-7.878 5.208-8.411-.263-.398-.637-.866-1.024-1.349-1.101-1.376-2.609-3.26-3.771-6.078-.182-.44-.752-1.463-1.412-2.648-3.579-6.418-11.026-19.773-6.242-26.612 2.214-3.165 6.623-4.411 13.119-3.716-1.911-5.822-11.011-24.034-32.604-24.388-6.494-.108-11.82 1.889-15.822 5.93-8.96 9.049-8.636 25.422-8.631 25.586.023.881-.672 1.614-1.553 1.637-.881.028-1.613-.672-1.637-1.553-.02-.727-.354-17.909 9.554-27.916 4.637-4.683 10.741-6.995 18.142-6.874 13.814.227 22.706 7.25 27.732 13.101 5.479 6.377 8.165 13.411 8.386 15.759.165 1.746-1.088 2.095-1.341 2.147l-.576.013c-6.375-1.021-10.465-.312-12.156 2.104-3.639 5.201 3.406 17.834 6.414 23.229.768 1.376 1.322 2.371 1.576 2.985.988 2.396 2.277 4.006 3.312 5.3.911 1.138 1.7 2.125 1.982 3.283.131.23 1.99 2.98 13.021.703 2.765-.57 4.423-.083 4.93 1.45.997 3.015-4.597 6.532-7.694 7.97-2.775 1.29-7.204 2.106-11.036 2.106zm-4.696-4.021c.35.353 2.101.962 5.727.806 3.224-.138 6.624-.839 8.664-1.786 2.609-1.212 4.351-2.567 5.253-3.492l-.5.092c-7.053 1.456-12.042 1.262-14.828-.577-.199-.131-.378-.267-.54-.401-.302.119-.581.197-.78.253-1.58.443-3.214.902-2.996 5.105zM51.252 92.125c-1.752 0-3.596-.239-5.479-.71-1.951-.488-5.24-1.957-5.19-4.37.057-2.707 3.994-3.519 5.476-3.824 5.354-1.103 5.703-1.545 7.376-3.67.488-.619 1.095-1.39 1.923-2.314 1.229-1.376 2.572-2.073 3.992-2.073.989 0 1.8.335 2.336.558 1.708.708 3.133 2.42 3.719 4.467.529 1.847.276 3.625-.71 5.006-3.237 4.533-7.886 6.93-13.443 6.93zm-7.222-4.943c.481.372 1.445.869 2.518 1.137 1.631.408 3.213.615 4.705.615 4.546 0 8.196-1.882 10.847-5.594.553-.774.387-1.757.239-2.274-.31-1.083-1.08-2.068-1.873-2.397-.43-.178-.787-.314-1.115-.314-.176 0-.712 0-1.614 1.009-.762.851-1.311 1.548-1.794 2.162-2.084 2.646-3.039 3.544-9.239 4.821-1.513.31-2.289.626-2.674.835zM56.299 79.822c-.774 0-1.454-.565-1.575-1.354-.04-.265-.066-.531-.08-.799-4.064-.076-7.985-1.82-10.962-4.926-3.764-3.927-5.477-9.368-4.699-14.927.845-6.037.529-11.366.359-14.229-.047-.796-.081-1.371-.079-1.769.003-.505.013-1.844 4.489-4.113 1.592-.807 4.784-2.215 8.271-2.576 5.777-.597 9.585 1.976 10.725 7.246 3.077 14.228.244 20.521-1.825 25.117-.385.856-.749 1.664-1.04 2.447l-.257.69c-1.093 2.931-2.038 5.463-1.748 7.354.134.871-.464 1.685-1.335 1.819l-.244.02zm-13.835-37.562l.062 1.139c.176 2.974.504 8.508-.384 14.86-.641 4.585.759 9.06 3.843 12.276 2.437 2.542 5.644 3.945 8.94 3.945h.068c.369-1.555.982-3.197 1.642-4.966l.255-.686c.329-.884.714-1.74 1.122-2.646 1.991-4.424 4.47-9.931 1.615-23.132-.565-2.615-1.936-4.128-4.189-4.627-4.628-1.022-11.525 2.459-12.974 3.837zM52.094 41.583c-.08.564 1.033 2.07 2.485 2.271 1.449.203 2.689-.975 2.768-1.539.079-.564-1.033-1.186-2.485-1.388-1.451-.202-2.691.092-2.768.656zM54.912 44.409l-.407-.028c-.9-.125-1.81-.692-2.433-1.518-.219-.29-.576-.852-.505-1.354.101-.736.999-1.177 2.4-1.177.313 0 .639.023.967.069.766.106 1.477.327 2.002.62.91.508.977 1.075.936 1.368-.112.813-1.405 2.02-2.96 2.02zm-2.289-2.732c.045.348.907 1.496 2.029 1.651l.261.018c1.036 0 1.81-.815 1.901-1.082-.096-.182-.762-.634-2.025-.81-.28-.04-.556-.059-.821-.059-.812 0-1.243.183-1.345.282zM96.228 40.432c.079.564-1.033 2.07-2.484 2.272-1.45.202-2.691-.975-2.771-1.539-.076-.564 1.036-1.187 2.486-1.388 1.45-.203 2.689.092 2.769.655zM93.409 42.992c-1.396 0-2.601-1.086-2.7-1.791-.115-.846 1.278-1.489 2.712-1.688.316-.044.629-.066.93-.066 1.238 0 2.058.363 2.14.949.053.379-.238.964-.739 1.492-.331.347-1.026.948-1.973 1.079l-.37.025zm.943-3.013c-.276 0-.564.021-.856.061-1.441.201-2.301.779-2.259 1.089.048.341.968 1.332 2.173 1.332l.297-.021c.787-.109 1.378-.623 1.66-.919.443-.465.619-.903.598-1.052-.028-.198-.56-.49-1.613-.49zM98.317 72.822c-.305 0-.613-.088-.886-.27-.732-.49-.929-1.481-.438-2.213 3.398-5.075 2.776-10.25 2.175-15.255-.257-2.132-.521-4.337-.453-6.453.07-2.177.347-3.973.614-5.71.317-2.058.617-4.002.493-6.31-.048-.88.627-1.631 1.507-1.679.883-.047 1.632.627 1.679 1.507.142 2.638-.197 4.838-.525 6.967-.253 1.643-.515 3.342-.578 5.327-.061 1.874.178 3.864.431 5.97.64 5.322 1.365 11.354-2.691 17.411-.308.459-.813.708-1.328.708z"/><path stroke="#fff" stroke-width="3" stroke-linecap="round" stroke-linejoin="round" d="M4.335 19.029" fill="none"/>
</symbol><symbol id="react" viewBox="0 0 841.9 595.3">
<g>
	<path fill="#61DAFB" d="M666.3,296.5c0-32.5-40.7-63.3-103.1-82.4c14.4-63.6,8-114.2-20.2-130.4c-6.5-3.8-14.1-5.6-22.4-5.6v22.3
		c4.6,0,8.3,0.9,11.4,2.6c13.6,7.8,19.5,37.5,14.9,75.7c-1.1,9.4-2.9,19.3-5.1,29.4c-19.6-4.8-41-8.5-63.5-10.9
		c-13.5-18.5-27.5-35.3-41.6-50c32.6-30.3,63.2-46.9,84-46.9l0-22.3c0,0,0,0,0,0c-27.5,0-63.5,19.6-99.9,53.6
		c-36.4-33.8-72.4-53.2-99.9-53.2v22.3c20.7,0,51.4,16.5,84,46.6c-14,14.7-28,31.4-41.3,49.9c-22.6,2.4-44,6.1-63.6,11
		c-2.3-10-4-19.7-5.2-29c-4.7-38.2,1.1-67.9,14.6-75.8c3-1.8,6.9-2.6,11.5-2.6l0-22.3c0,0,0,0,0,0c-8.4,0-16,1.8-22.6,5.6
		c-28.1,16.2-34.4,66.7-19.9,130.1c-62.2,19.2-102.7,49.9-102.7,82.3c0,32.5,40.7,63.3,103.1,82.4c-14.4,63.6-8,114.2,20.2,130.4
		c6.5,3.8,14.1,5.6,22.5,5.6c27.5,0,63.5-19.6,99.9-53.6c36.4,33.8,72.4,53.2,99.9,53.2c8.4,0,16-1.8,22.6-5.6
		c28.1-16.2,34.4-66.7,19.9-130.1C625.8,359.7,666.3,328.9,666.3,296.5z M536.1,229.8c-3.7,12.9-8.3,26.2-13.5,39.5
		c-4.1-8-8.4-16-13.1-24c-4.6-8-9.5-15.8-14.4-23.4C509.3,224,523,226.6,536.1,229.8z M490.3,336.3c-7.8,13.5-15.8,26.3-24.1,38.2
		c-14.9,1.3-30,2-45.2,2c-15.1,0-30.2-0.7-45-1.9c-8.3-11.9-16.4-24.6-24.2-38c-7.6-13.1-14.5-26.4-20.8-39.8
		c6.2-13.4,13.2-26.8,20.7-39.9c7.8-13.5,15.8-26.3,24.1-38.2c14.9-1.3,30-2,45.2-2c15.1,0,30.2,0.7,45,1.9
		c8.3,11.9,16.4,24.6,24.2,38c7.6,13.1,14.5,26.4,20.8,39.8C504.7,309.8,497.8,323.2,490.3,336.3z M522.6,323.3
		c5.4,13.4,10,26.8,13.8,39.8c-13.1,3.2-26.9,5.9-41.2,8c4.9-7.7,9.8-15.6,14.4-23.7C514.2,339.4,518.5,331.3,522.6,323.3z
		 M421.2,430c-9.3-9.6-18.6-20.3-27.8-32c9,0.4,18.2,0.7,27.5,0.7c9.4,0,18.7-0.2,27.8-0.7C439.7,409.7,430.4,420.4,421.2,430z
		 M346.8,371.1c-14.2-2.1-27.9-4.7-41-7.9c3.7-12.9,8.3-26.2,13.5-39.5c4.1,8,8.4,16,13.1,24C337.1,355.7,341.9,363.5,346.8,371.1z
		 M420.7,163c9.3,9.6,18.6,20.3,27.8,32c-9-0.4-18.2-0.7-27.5-0.7c-9.4,0-18.7,0.2-27.8,0.7C402.2,183.3,411.5,172.6,420.7,163z
		 M346.7,221.9c-4.9,7.7-9.8,15.6-14.4,23.7c-4.6,8-8.9,16-13,24c-5.4-13.4-10-26.8-13.8-39.8C318.6,226.7,332.4,224,346.7,221.9z
		 M256.2,347.1c-35.4-15.1-58.3-34.9-58.3-50.6c0-15.7,22.9-35.6,58.3-50.6c8.6-3.7,18-7,27.7-10.1c5.7,19.6,13.2,40,22.5,60.9
		c-9.2,20.8-16.6,41.1-22.2,60.6C274.3,354.2,264.9,350.8,256.2,347.1z M310,490c-13.6-7.8-19.5-37.5-14.9-75.7
		c1.1-9.4,2.9-19.3,5.1-29.4c19.6,4.8,41,8.5,63.5,10.9c13.5,18.5,27.5,35.3,41.6,50c-32.6,30.3-63.2,46.9-84,46.9
		C316.8,492.6,313,491.7,310,490z M547.2,413.8c4.7,38.2-1.1,67.9-14.6,75.8c-3,1.8-6.9,2.6-11.5,2.6c-20.7,0-51.4-16.5-84-46.6
		c14-14.7,28-31.4,41.3-49.9c22.6-2.4,44-6.1,63.6-11C544.3,394.8,546.1,404.5,547.2,413.8z M585.7,347.1c-8.6,3.7-18,7-27.7,10.1
		c-5.7-19.6-13.2-40-22.5-60.9c9.2-20.8,16.6-41.1,22.2-60.6c9.9,3.1,19.3,6.5,28.1,10.2c35.4,15.1,58.3,34.9,58.3,50.6
		C644,312.2,621.1,332.1,585.7,347.1z"/>
	<polygon fill="#61DAFB" points="320.8,78.4 320.8,78.4 320.8,78.4 	"/>
	<circle fill="#61DAFB" cx="420.9" cy="296.5" r="45.7"/>
	<polygon fill="#61DAFB" points="520.5,78.1 520.5,78.1 520.5,78.1 	"/>
</g>
</symbol><symbol id="responsive" viewBox="0 0 24 24"><path d="M16,18H7V4H16M11.5,22A1.5,1.5 0 0,1 10,20.5A1.5,1.5 0 0,1 11.5,19A1.5,1.5 0 0,1 13,20.5A1.5,1.5 0 0,1 11.5,22M15.5,1H7.5A2.5,2.5 0 0,0 5,3.5V20.5A2.5,2.5 0 0,0 7.5,23H15.5A2.5,2.5 0 0,0 18,20.5V3.5A2.5,2.5 0 0,0 15.5,1Z"/></symbol><symbol id="sass" viewBox="0 0 128 128">
  <path fill-rule="evenodd" clip-rule="evenodd" fill="#CB6699" d="M1.219 56.156c0 .703.207 1.167.323 1.618.756 2.933 2.381 5.45 4.309 7.746 2.746 3.272 6.109 5.906 9.554 8.383 2.988 2.148 6.037 4.248 9.037 6.38.515.366 1.002.787 1.561 1.236-.481.26-.881.489-1.297.7-3.959 2.008-7.768 4.259-11.279 6.986-2.116 1.644-4.162 3.391-5.607 5.674-2.325 3.672-3.148 7.584-1.415 11.761.506 1.22 1.278 2.274 2.367 3.053.353.252.749.502 1.162.6 1.058.249 2.136.412 3.207.609l3.033-.002c3.354-.299 6.407-1.448 9.166-3.352 4.312-2.976 7.217-6.966 8.466-12.087.908-3.722.945-7.448-.125-11.153-.099-.344-.224-.681-.354-1.014-.13-.333-.283-.657-.463-1.072l6.876-3.954.103.088c-.125.409-.258.817-.371 1.23-.817 2.984-1.36 6.02-1.165 9.117.208 3.3 1.129 6.389 3.061 9.146 1.562 2.23 5.284 2.313 6.944.075.589-.795 1.16-1.626 1.589-2.513 1.121-2.315 2.159-4.671 3.23-7.011l.187-.428c-.077 1.108-.167 2.081-.208 3.055-.064 1.521.025 3.033.545 4.48.445 1.238 1.202 2.163 2.62 2.326.97.111 1.743-.333 2.456-.896 1.114-.879 2.019-1.965 2.691-3.199 1.901-3.491 3.853-6.961 5.576-10.54 1.864-3.871 3.494-7.855 5.225-11.792l.286-.698c.409 1.607.694 3.181 1.219 4.671.61 1.729 1.365 3.417 2.187 5.058.389.775.344 1.278-.195 1.928-2.256 2.72-4.473 5.473-6.692 8.223-.491.607-.98 1.225-1.389 1.888-.247.403-.411.894-.48 1.364-.133.898.422 1.764 1.383 1.971.878.189 1.813.259 2.708.193 3.097-.228 5.909-1.315 8.395-3.157 3.221-2.386 4.255-5.642 3.475-9.501-.211-1.047-.584-2.065-.947-3.074-.163-.455-.174-.774.123-1.198 2.575-3.677 4.775-7.578 6.821-11.569.081-.157.164-.314.306-.482.663 3.45 1.661 6.775 3.449 9.792-.912.879-1.815 1.676-2.632 2.554-1.799 1.934-3.359 4.034-4.173 6.595-.35 1.104-.619 2.226-.463 3.405.242 1.831 1.742 3.021 3.543 2.604 3.854-.892 7.181-2.708 9.612-5.925 1.636-2.166 1.785-4.582 1.1-7.113-.188-.688-.411-1.365-.651-2.154.951-.295 1.878-.649 2.837-.868 4.979-1.136 9.904-.938 14.702.86 2.801 1.05 5.064 2.807 6.406 5.571 1.639 3.379.733 6.585-2.452 8.721-.297.199-.637.356-.883.605-.151.153-.242.459-.205.67.021.123.346.277.533.275 1.047-.008 1.896-.557 2.711-1.121 2.042-1.413 3.532-3.314 3.853-5.817l.063-.188-.077-1.63c-.031-.094.023-.187.016-.258-.434-3.645-2.381-6.472-5.213-8.688-3.28-2.565-7.153-3.621-11.249-3.788-3.338-.136-6.619.36-9.765 1.503-.897.325-1.786.71-2.688 1.073-.121-.219-.251-.429-.358-.646-.926-1.896-2.048-3.708-2.296-5.882-.176-1.544-.392-3.086-.025-4.613.353-1.469.813-2.913 1.246-4.362.223-.746.066-1.164-.646-1.5-.248-.117-.518-.219-.786-.258-1.75-.254-3.476-.109-5.171.384-.6.175-1.036.511-1.169 1.175-.076.381-.231.746-.339 1.122-.443 1.563-.757 3.156-1.473 4.645-1.794 3.735-3.842 7.329-5.938 10.897-.227.385-.466.763-.752 1.23-.736-1.54-1.521-2.922-1.759-4.542-.269-1.832-.481-3.661-.025-5.479.339-1.356.782-2.687 1.19-4.025.193-.636.104-.97-.472-1.305-.291-.169-.62-.319-.948-.368-1.815-.269-3.603-.128-5.354.438-.543.176-.828.527-.994 1.087-.488 1.652-.904 3.344-1.589 4.915-2.774 6.36-5.628 12.687-8.479 19.013-.595 1.321-1.292 2.596-1.963 3.882-.17.326-.418.613-.63.919-.17-.201-.236-.339-.235-.477.005-.813-.092-1.65.063-2.436.469-2.378 1.009-4.743 1.578-7.099.47-1.946 1.017-3.874 1.538-5.807.175-.647.178-1.252-.287-1.796-.781-.911-2.413-1.111-3.381-.409l-.428.242.083-.69c.204-1.479.245-2.953-.161-4.41-.506-1.816-1.802-2.861-3.686-2.803-.878.027-1.8.177-2.613.497-3.419 1.34-6.048 3.713-8.286 6.568-.203.259-.471.495-.757.654-2.893 1.604-5.795 3.188-8.696 4.778l-3.229 1.769c-.866-.826-1.653-1.683-2.546-2.41-2.727-2.224-5.498-4.393-8.244-6.592-2.434-1.949-4.792-3.979-6.596-6.56-1.342-1.92-2.207-4.021-2.29-6.395-.105-3.025.753-5.789 2.293-8.362 1.97-3.292 4.657-5.934 7.611-8.327 3.125-2.53 6.505-4.678 10.008-6.639 4.901-2.743 9.942-5.171 15.347-6.774 5.542-1.644 11.165-2.585 16.965-1.929 2.28.258 4.494.78 6.527 1.895 1.557.853 2.834 1.97 3.428 3.716.586 1.718.568 3.459.162 5.204-.825 3.534-2.76 6.447-5.195 9.05-3.994 4.267-8.866 7.172-14.351 9.091-3.165 1.107-6.421 1.802-9.765 2.083-2.729.229-5.401-.013-7.985-.962-1.711-.629-3.201-1.591-4.399-2.987-.214-.25-.488-.521-.887-.287-.391.23-.46.602-.329.979.219.626.421 1.278.762 1.838.857 1.405 2.107 2.424 3.483 3.298 2.643 1.681 5.597 2.246 8.66 2.377 4.648.201 9.183-.493 13.654-1.74 6.383-1.78 11.933-4.924 16.384-9.884 3.706-4.13 6.353-8.791 6.92-14.419.277-2.747-.018-5.438-1.304-7.944-1.395-2.715-3.613-4.734-6.265-6.125-3.862-2.025-8.03-3.204-12.332-3.204h-4.31c-5.21 0-10.247 1.493-15.143 3.274-3.706 1.349-7.34 2.941-10.868 4.703-7.683 3.839-14.838 8.468-20.715 14.833-2.928 3.171-5.407 6.67-6.833 10.79-.417 1.206-.813 2.499-1.111 3.746m27.839 36.013c-.333 4.459-2.354 8.074-5.657 11.002-1.858 1.646-3.989 2.818-6.471 3.23-.9.149-1.821.185-2.694-.188-1.245-.532-1.524-1.637-1.548-2.814-.037-1.876.62-3.572 1.521-5.186 1.176-2.104 2.9-3.708 4.741-5.206 2.9-2.361 6.046-4.359 9.268-6.245l.243-.1c.498 1.84.735 3.657.597 5.507zm25.158-19.379c-.235 1.424-.529 2.849-.945 4.229-1.438 4.777-3.285 9.406-5.282 13.973-.369.845-.906 1.616-1.373 2.417-.072.124-.179.231-.283.334-.578.571-1.126.541-1.418-.206-.34-.868-.549-1.797-.729-2.716-.121-.617-.092-1.265-.13-1.897.039-4.494 1.41-8.578 3.736-12.38.959-1.568 2.003-3.062 3.598-4.054.49-.305 1.04-.55 1.595-.706.85-.239 1.372.154 1.231 1.006zm17.164 21.868l6.169-7.203c.257 2.675-4.29 8.015-6.169 7.203zm19.703-4.847c-.436.25-.911.43-1.358.661-.409.212-.544-.002-.556-.354-.008-.239.027-.489.093-.721.833-2.938 2.366-5.446 4.647-7.486l.16-.082c1.085 3.035-.169 6.368-2.986 7.982z"/>
</symbol><symbol id="swift" viewBox="0 0 128 128">
  <path d="M97.905 67.885c.174 18.8 16.494 25.057 16.674 25.137-.138.44-2.607 8.916-8.597 17.669-5.178 7.568-10.553 15.108-19.018 15.266-8.318.152-10.993-4.934-20.504-4.934-9.508 0-12.479 4.776-20.354 5.086-8.172.31-14.395-8.185-19.616-15.724-10.668-15.424-18.821-43.585-7.874-62.594 5.438-9.44 15.158-15.417 25.707-15.571 8.024-.153 15.598 5.398 20.503 5.398 4.902 0 14.106-6.676 23.782-5.696 4.051.169 15.421 1.636 22.722 12.324-.587.365-13.566 7.921-13.425 23.639m-15.633-46.166c4.338-5.251 7.258-12.563 6.462-19.836-6.254.251-13.816 4.167-18.301 9.416-4.02 4.647-7.54 12.087-6.591 19.216 6.971.54 14.091-3.542 18.43-8.796"/>
</symbol><symbol id="wordpress" viewBox="0 0 128 128">
  <path fill-rule="evenodd" clip-rule="evenodd" fill="#494949" d="M64.094 126.224c34.275-.052 62.021-27.933 62.021-62.325 0-33.833-27.618-61.697-60.613-62.286-34.652-.618-63.608 27.5-63.617 61.597-.01 35.079 27.612 63.064 62.209 63.014zm-.101-121.594c32.907-.011 59.126 26.725 59.116 60.28-.011 31.679-26.925 58.18-59.092 58.187-32.771.007-59.125-26.563-59.124-59.608.002-32.193 26.766-58.848 59.1-58.859zM39.157 35.896c.538 1.793-.968 2.417-2.569 2.542-1.685.13-3.369.257-5.325.406 6.456 19.234 12.815 38.183 19.325 57.573.464-.759.655-.973.739-1.223 3.574-10.682 7.168-21.357 10.651-32.069.318-.977.16-2.271-.188-3.275-1.843-5.32-4.051-10.524-5.667-15.908-1.105-3.686-2.571-6.071-6.928-5.644-.742.073-1.648-1.524-2.479-2.349 1.005-.6 2.003-1.704 3.017-1.719 8.872-.135 17.747-.135 26.618.008 1.018.017 2.016 1.15 3.021 1.765-.88.804-1.639 2.01-2.668 2.321-1.651.498-3.482.404-5.458.58 6.463 19.225 12.793 38.057 19.349 57.56 2.931-9.736 5.658-18.676 8.31-27.639 2.366-8.001.956-15.473-3.322-22.52-1.286-2.119-2.866-4.175-3.595-6.486-.828-2.629-1.516-5.622-1.077-8.259.745-4.469 4.174-6.688 8.814-7.113-25.392-23.566-65.294-15.13-79.997 10.475 5.66-.261 11.064-.604 16.472-.678 1.022-.013 2.717.851 2.957 1.652zM49.274 113.867c-.118.345-.125.729-.218 1.302 10.943 3.034 21.675 2.815 32.659-.886l-16.78-45.96c-5.37 15.611-10.52 30.575-15.661 45.544zM40.818 111.789l-25.281-69.35c-11.405 22.278-2.729 56.268 25.281 69.35zM117.246 67.227c.802-10.534-2.832-25.119-5.97-27.125-.35 3.875-.106 8.186-1.218 12.114-2.617 9.255-5.817 18.349-8.899 27.468-3.35 9.912-6.832 19.779-10.257 29.666 16.092-9.539 24.935-23.618 26.344-42.123z"/>
</symbol></svg>