<svg xmlns="http://www.w3.org/2000/svg" xmlns:xlink="http://www.w3.org/1999/xlink" width="986.037" height="986.081"><defs><linearGradient id="f"><stop offset="0" stop-color="#e7e7e7"/><stop offset="1" stop-color="#fff"/></linearGradient><linearGradient id="e"><stop offset="0" stop-color="#fff"/><stop offset="1" stop-color="#e7e7e7"/></linearGradient><linearGradient id="d"><stop offset="0" stop-color="#4e111d"/><stop offset="1" stop-color="#8f1a1e"/></linearGradient><linearGradient id="c"><stop offset="0" stop-color="#7c1315"/><stop offset="1" stop-color="#e81c24"/></linearGradient><linearGradient id="b"><stop offset="0" stop-color="#e5e5e5"/><stop offset="1" stop-color="#fff"/></linearGradient><linearGradient id="a"><stop offset="0" stop-color="#fff"/><stop offset="1" stop-color="#e7e7e7"/></linearGradient><radialGradient xlink:href="#a" id="i" cx="-208.916" cy="150.29" fx="-208.916" fy="150.29" r="470.012" gradientTransform="matrix(1 0 0 1.00005 497.908 -93.213)" gradientUnits="userSpaceOnUse"/><linearGradient xlink:href="#b" id="n" x1="-95.114" y1="101.635" x2="421.451" y2="101.635" gradientUnits="userSpaceOnUse" gradientTransform="translate(345.173 407.447)"/><linearGradient xlink:href="#c" id="k" x1="1877.583" y1="914.461" x2="1734.319" y2="323.32" gradientUnits="userSpaceOnUse" gradientTransform="translate(-1257.399 -126.885)"/><linearGradient xlink:href="#d" id="j" x1="-34.428" y1="872.586" x2="-34.428" y2="46.616" gradientUnits="userSpaceOnUse" gradientTransform="translate(63.443 2.906)"/><linearGradient xlink:href="#e" id="l" x1="509.278" y1="753.145" x2="509.278" y2="766.404" gradientUnits="userSpaceOnUse" gradientTransform="translate(.105 .154)"/><linearGradient xlink:href="#f" id="m" x1="482.484" y1="781.365" x2="482.484" y2="714.423" gradientUnits="userSpaceOnUse"/><linearGradient id="g"><stop offset="0" stop-color="#e5e5e5"/><stop offset="1" stop-color="#fff"/></linearGradient><linearGradient id="h"><stop offset="0" stop-color="#e5e5e5"/><stop offset="1" stop-color="#fff"/></linearGradient></defs><rect width="940.023" height="940.07" ry="0" fill="url(#i)"/><path d="M22.507 958.48l-22.5-22.564V0L23.01 23.004 46.015 46.01l-.504 467.517-.504 467.518-22.5-22.564z" fill="url(#j)"/><rect width="940.023" height="940.07" x="46.013" y="46.011" ry="0" fill="url(#k)"/><path d="M250.19 766.9v-58.293l9.99-1.001c48.016-4.813 70.977-15.186 101.759-45.968 35.902-35.902 59.944-80.901 99.753-186.71 26.342-70.015 48.179-112.521 82.39-160.38 29.86-41.772 77.178-75.62 130.165-93.112 26.107-8.618 61.62-14.938 83.94-14.938h8.568v116.695l-9.991.872c-26.478 2.312-47.938 8.88-68.659 21.013-27.562 16.14-61.414 57.572-80.45 98.465-6.606 14.19-10.25 13.097 43.65 13.097h47.364v118.382l-72.656.385-72.656.384-7.99 17.662c-20.486 45.28-44.382 87.92-67.793 120.969-44.99 63.51-105.05 98.04-188.901 108.603-9.362 1.18-21.85 2.15-27.753 2.156l-10.73.012V766.9z" fill="red"/><path d="M250.232 754.84v-58.293l9.991-1.001c48.016-4.814 70.977-15.186 101.759-45.968 35.902-35.902 59.944-80.901 99.753-186.71 26.342-70.015 48.179-112.521 82.39-160.38 29.859-41.772 77.178-75.62 130.164-93.112 26.108-8.618 61.62-14.938 83.942-14.938h8.567v116.695l-9.991.872c-26.478 2.312-47.938 8.88-68.659 21.013-27.562 16.14-61.414 57.572-80.45 98.465-6.606 14.19-10.251 13.097 43.65 13.097h47.364v118.382l-72.656.385-72.656.384-7.99 17.662c-20.486 45.28-44.382 87.92-67.794 120.969-44.988 63.509-105.049 98.039-188.9 108.603-9.362 1.18-21.85 2.15-27.753 2.156l-10.73.012V754.84z" fill="maroon"/><text style="line-height:125%;-inkscape-font-specification:Verdana Bold" x="495.675" y="767.319" font-size="32" font-weight="700" letter-spacing="0" word-spacing="0" fill="url(#l)" font-family="Verdana"><tspan x="495.675" y="767.319">R</tspan></text><path d="M535.437 725.647a53.285 53.285 0 1 1-106.57 0 53.285 53.285 0 1 1 106.57 0z" transform="matrix(.38073 0 0 .38073 324.345 479.37)" fill="none" stroke="url(#m)" stroke-width="15.811"/><path d="M250.06 760.136v-58.292l9.99-1.002c48.016-4.813 70.977-15.185 101.759-45.967 35.902-35.902 59.944-80.902 99.753-186.711 26.342-70.014 48.179-112.521 82.39-160.38 29.859-41.771 77.178-75.62 130.164-93.112 26.108-8.618 61.62-14.937 83.942-14.937h8.567v116.694l-9.991.873c-26.478 2.311-47.939 8.88-68.659 21.013-27.562 16.14-61.414 57.572-80.45 98.465-6.607 14.19-10.251 13.097 43.65 13.097h47.364v118.382l-72.656.384-72.656.384-7.99 17.663c-20.486 45.279-44.382 87.918-67.794 120.968-44.988 63.51-105.049 98.04-188.9 108.603-9.362 1.18-21.85 2.15-27.753 2.156l-10.73.012v-58.293z" fill="url(#n)"/></svg>